<mxfile host="Electron" agent="Mozilla/5.0 (Windows NT 10.0; Win64; x64) AppleWebKit/537.36 (KHTML, like Gecko) draw.io/26.0.16 Chrome/132.0.6834.196 Electron/34.2.0 Safari/537.36" version="26.0.16">
  <diagram name="Page-1" id="WASLpTwy2ZbQWI6ii88h">
    <mxGraphModel dx="1434" dy="836" grid="1" gridSize="10" guides="1" tooltips="1" connect="1" arrows="1" fold="1" page="1" pageScale="1" pageWidth="850" pageHeight="1100" math="0" shadow="0">
      <root>
        <mxCell id="0" />
        <mxCell id="1" parent="0" />
        <mxCell id="7nAhwSSTOHI013ocTRrG-188" value="" style="rounded=0;whiteSpace=wrap;html=1;fillColor=none;" parent="1" vertex="1">
          <mxGeometry x="40" y="40.97" width="760" height="1359.03" as="geometry" />
        </mxCell>
        <mxCell id="7nAhwSSTOHI013ocTRrG-128" value="" style="endArrow=none;html=1;rounded=0;" parent="1" edge="1">
          <mxGeometry width="50" height="50" relative="1" as="geometry">
            <mxPoint x="320" y="1400" as="sourcePoint" />
            <mxPoint x="320" y="40" as="targetPoint" />
          </mxGeometry>
        </mxCell>
        <mxCell id="7nAhwSSTOHI013ocTRrG-129" value="" style="endArrow=none;html=1;rounded=0;entryX=1.002;entryY=0.023;entryDx=0;entryDy=0;entryPerimeter=0;" parent="1" target="7nAhwSSTOHI013ocTRrG-188" edge="1">
          <mxGeometry width="50" height="50" relative="1" as="geometry">
            <mxPoint x="40" y="80" as="sourcePoint" />
            <mxPoint x="760" y="80" as="targetPoint" />
            <Array as="points">
              <mxPoint x="390" y="80" />
            </Array>
          </mxGeometry>
        </mxCell>
        <mxCell id="7nAhwSSTOHI013ocTRrG-130" value="User" style="text;html=1;align=center;verticalAlign=middle;whiteSpace=wrap;rounded=0;fontSize=18;fontStyle=1" parent="1" vertex="1">
          <mxGeometry x="40" y="40.97" width="280" height="40" as="geometry" />
        </mxCell>
        <mxCell id="_p5EBCPVnYr-h8DB5MFF-2" value="" style="edgeStyle=orthogonalEdgeStyle;rounded=0;orthogonalLoop=1;jettySize=auto;html=1;fontSize=12;" parent="1" source="7nAhwSSTOHI013ocTRrG-132" target="_p5EBCPVnYr-h8DB5MFF-1" edge="1">
          <mxGeometry relative="1" as="geometry" />
        </mxCell>
        <mxCell id="7nAhwSSTOHI013ocTRrG-132" value="" style="ellipse;whiteSpace=wrap;html=1;aspect=fixed;labelBackgroundColor=none;fillColor=#000000;fontSize=12;" parent="1" vertex="1">
          <mxGeometry x="165" y="104.97" width="30" height="30" as="geometry" />
        </mxCell>
        <mxCell id="7nAhwSSTOHI013ocTRrG-177" value="" style="ellipse;html=1;shape=endState;fillColor=#000000;strokeColor=#ff0000;fontSize=12;" parent="1" vertex="1">
          <mxGeometry x="165" y="1345" width="30" height="30" as="geometry" />
        </mxCell>
        <mxCell id="7nAhwSSTOHI013ocTRrG-131" value="System" style="text;html=1;align=center;verticalAlign=middle;whiteSpace=wrap;rounded=0;fontSize=18;fontStyle=1" parent="1" vertex="1">
          <mxGeometry x="320" y="40" width="480" height="40" as="geometry" />
        </mxCell>
        <mxCell id="YK6meVrRw3B7LHDAnTog-28" style="edgeStyle=orthogonalEdgeStyle;rounded=0;orthogonalLoop=1;jettySize=auto;html=1;" edge="1" parent="1" source="_p5EBCPVnYr-h8DB5MFF-1" target="YK6meVrRw3B7LHDAnTog-5">
          <mxGeometry relative="1" as="geometry" />
        </mxCell>
        <mxCell id="_p5EBCPVnYr-h8DB5MFF-1" value="Hastinulc Makeup Art" style="rounded=1;whiteSpace=wrap;html=1;strokeWidth=2;fontSize=12;" parent="1" vertex="1">
          <mxGeometry x="120" y="160" width="120" height="60" as="geometry" />
        </mxCell>
        <mxCell id="YK6meVrRw3B7LHDAnTog-31" style="edgeStyle=orthogonalEdgeStyle;rounded=0;orthogonalLoop=1;jettySize=auto;html=1;exitX=0.5;exitY=1;exitDx=0;exitDy=0;entryX=0;entryY=0.5;entryDx=0;entryDy=0;" edge="1" parent="1" source="20DuT2QTR_UrF6RUShH2-1" target="20DuT2QTR_UrF6RUShH2-3">
          <mxGeometry relative="1" as="geometry" />
        </mxCell>
        <mxCell id="20DuT2QTR_UrF6RUShH2-1" value="Klik Tombol &quot;Questionnaire&quot;" style="rounded=1;whiteSpace=wrap;html=1;strokeWidth=2;fontSize=12;" parent="1" vertex="1">
          <mxGeometry x="120" y="800" width="120" height="60" as="geometry" />
        </mxCell>
        <mxCell id="YK6meVrRw3B7LHDAnTog-33" style="edgeStyle=orthogonalEdgeStyle;rounded=0;orthogonalLoop=1;jettySize=auto;html=1;entryX=1;entryY=0.5;entryDx=0;entryDy=0;" edge="1" parent="1" source="20DuT2QTR_UrF6RUShH2-3" target="YK6meVrRw3B7LHDAnTog-32">
          <mxGeometry relative="1" as="geometry">
            <Array as="points">
              <mxPoint x="460" y="1070" />
            </Array>
          </mxGeometry>
        </mxCell>
        <mxCell id="20DuT2QTR_UrF6RUShH2-3" value="Beralih Ke Halaman &quot;Questionnaire&quot;" style="rounded=1;whiteSpace=wrap;html=1;strokeWidth=2;fontSize=12;" parent="1" vertex="1">
          <mxGeometry x="400" y="920" width="120" height="60" as="geometry" />
        </mxCell>
        <mxCell id="YK6meVrRw3B7LHDAnTog-1" value="" style="edgeStyle=orthogonalEdgeStyle;rounded=0;orthogonalLoop=1;jettySize=auto;html=1;fontSize=12;" edge="1" parent="1" source="YK6meVrRw3B7LHDAnTog-5" target="YK6meVrRw3B7LHDAnTog-10">
          <mxGeometry relative="1" as="geometry" />
        </mxCell>
        <mxCell id="YK6meVrRw3B7LHDAnTog-2" value="Sudah" style="edgeLabel;html=1;align=center;verticalAlign=middle;resizable=0;points=[];fontSize=12;" vertex="1" connectable="0" parent="YK6meVrRw3B7LHDAnTog-1">
          <mxGeometry relative="1" as="geometry">
            <mxPoint as="offset" />
          </mxGeometry>
        </mxCell>
        <mxCell id="YK6meVrRw3B7LHDAnTog-18" style="edgeStyle=orthogonalEdgeStyle;rounded=0;orthogonalLoop=1;jettySize=auto;html=1;entryX=0.5;entryY=0;entryDx=0;entryDy=0;" edge="1" parent="1" source="YK6meVrRw3B7LHDAnTog-5" target="YK6meVrRw3B7LHDAnTog-11">
          <mxGeometry relative="1" as="geometry" />
        </mxCell>
        <mxCell id="YK6meVrRw3B7LHDAnTog-21" value="Belum" style="edgeLabel;html=1;align=center;verticalAlign=middle;resizable=0;points=[];" vertex="1" connectable="0" parent="YK6meVrRw3B7LHDAnTog-18">
          <mxGeometry x="-0.6806" y="1" relative="1" as="geometry">
            <mxPoint x="-2" y="-1" as="offset" />
          </mxGeometry>
        </mxCell>
        <mxCell id="YK6meVrRw3B7LHDAnTog-25" style="edgeStyle=orthogonalEdgeStyle;rounded=0;orthogonalLoop=1;jettySize=auto;html=1;entryX=1;entryY=0.5;entryDx=0;entryDy=0;" edge="1" parent="1" source="YK6meVrRw3B7LHDAnTog-5" target="YK6meVrRw3B7LHDAnTog-24">
          <mxGeometry relative="1" as="geometry">
            <Array as="points">
              <mxPoint x="760" y="340" />
              <mxPoint x="760" y="830" />
            </Array>
          </mxGeometry>
        </mxCell>
        <mxCell id="YK6meVrRw3B7LHDAnTog-5" value="Sudah Memberi Ulasan?" style="rhombus;whiteSpace=wrap;html=1;rounded=1;verticalAlign=middle;spacingTop=8;fontSize=12;" vertex="1" parent="1">
          <mxGeometry x="600" y="280" width="120" height="120" as="geometry" />
        </mxCell>
        <mxCell id="YK6meVrRw3B7LHDAnTog-6" value="" style="edgeStyle=orthogonalEdgeStyle;rounded=0;orthogonalLoop=1;jettySize=auto;html=1;entryX=0.5;entryY=0;entryDx=0;entryDy=0;exitX=0.5;exitY=1;exitDx=0;exitDy=0;fontSize=12;" edge="1" parent="1" source="YK6meVrRw3B7LHDAnTog-10" target="YK6meVrRw3B7LHDAnTog-14">
          <mxGeometry relative="1" as="geometry">
            <mxPoint x="660" y="630" as="sourcePoint" />
            <mxPoint x="660" y="680" as="targetPoint" />
          </mxGeometry>
        </mxCell>
        <mxCell id="YK6meVrRw3B7LHDAnTog-7" value="Sudah" style="edgeLabel;html=1;align=center;verticalAlign=middle;resizable=0;points=[];fontSize=12;" vertex="1" connectable="0" parent="YK6meVrRw3B7LHDAnTog-6">
          <mxGeometry relative="1" as="geometry">
            <mxPoint as="offset" />
          </mxGeometry>
        </mxCell>
        <mxCell id="YK6meVrRw3B7LHDAnTog-19" style="edgeStyle=orthogonalEdgeStyle;rounded=0;orthogonalLoop=1;jettySize=auto;html=1;entryX=1;entryY=0.5;entryDx=0;entryDy=0;" edge="1" parent="1" source="YK6meVrRw3B7LHDAnTog-10" target="YK6meVrRw3B7LHDAnTog-11">
          <mxGeometry relative="1" as="geometry" />
        </mxCell>
        <mxCell id="YK6meVrRw3B7LHDAnTog-22" value="Sudah" style="edgeLabel;html=1;align=center;verticalAlign=middle;resizable=0;points=[];" vertex="1" connectable="0" parent="YK6meVrRw3B7LHDAnTog-19">
          <mxGeometry x="-0.303" relative="1" as="geometry">
            <mxPoint x="-2" y="-20" as="offset" />
          </mxGeometry>
        </mxCell>
        <mxCell id="YK6meVrRw3B7LHDAnTog-26" style="edgeStyle=orthogonalEdgeStyle;rounded=0;orthogonalLoop=1;jettySize=auto;html=1;exitX=1;exitY=0.5;exitDx=0;exitDy=0;" edge="1" parent="1" source="YK6meVrRw3B7LHDAnTog-10">
          <mxGeometry relative="1" as="geometry">
            <mxPoint x="520" y="830" as="targetPoint" />
            <Array as="points">
              <mxPoint x="760" y="500" />
              <mxPoint x="760" y="830" />
            </Array>
          </mxGeometry>
        </mxCell>
        <mxCell id="YK6meVrRw3B7LHDAnTog-10" value="Sudah Mengisi Kuesioner ?" style="rhombus;whiteSpace=wrap;html=1;rounded=1;align=center;spacingTop=4;fontSize=12;" vertex="1" parent="1">
          <mxGeometry x="600" y="440" width="120" height="120" as="geometry" />
        </mxCell>
        <mxCell id="YK6meVrRw3B7LHDAnTog-11" value="Tombol &quot;Questionnaire&quot; Di Non-Aktifkan" style="whiteSpace=wrap;html=1;rounded=1;" vertex="1" parent="1">
          <mxGeometry x="400" y="440" width="120" height="60" as="geometry" />
        </mxCell>
        <mxCell id="YK6meVrRw3B7LHDAnTog-20" style="edgeStyle=orthogonalEdgeStyle;rounded=0;orthogonalLoop=1;jettySize=auto;html=1;entryX=0.5;entryY=1;entryDx=0;entryDy=0;" edge="1" parent="1" source="YK6meVrRw3B7LHDAnTog-14" target="YK6meVrRw3B7LHDAnTog-11">
          <mxGeometry relative="1" as="geometry" />
        </mxCell>
        <mxCell id="YK6meVrRw3B7LHDAnTog-23" value="Belum" style="edgeLabel;html=1;align=center;verticalAlign=middle;resizable=0;points=[];" vertex="1" connectable="0" parent="YK6meVrRw3B7LHDAnTog-20">
          <mxGeometry x="-0.7389" relative="1" as="geometry">
            <mxPoint x="-1" as="offset" />
          </mxGeometry>
        </mxCell>
        <mxCell id="YK6meVrRw3B7LHDAnTog-27" style="edgeStyle=orthogonalEdgeStyle;rounded=0;orthogonalLoop=1;jettySize=auto;html=1;entryX=1;entryY=0.5;entryDx=0;entryDy=0;" edge="1" parent="1" source="YK6meVrRw3B7LHDAnTog-14" target="YK6meVrRw3B7LHDAnTog-24">
          <mxGeometry relative="1" as="geometry">
            <Array as="points">
              <mxPoint x="760" y="660" />
              <mxPoint x="760" y="830" />
            </Array>
          </mxGeometry>
        </mxCell>
        <mxCell id="YK6meVrRw3B7LHDAnTog-14" value="&lt;font style=&quot;font-size: 10px;&quot;&gt;Apakah Status&lt;/font&gt;&lt;div&gt;&lt;font style=&quot;font-size: 10px;&quot;&gt;&lt;font&gt;Kuesioner Terakhir&amp;nbsp;&lt;/font&gt;&lt;span style=&quot;background-color: transparent; color: light-dark(rgb(0, 0, 0), rgb(255, 255, 255));&quot;&gt;Sudah&lt;/span&gt;&lt;/font&gt;&lt;/div&gt;&lt;div&gt;&lt;font style=&quot;font-size: 10px;&quot;&gt;Kadaluwarsa ?&lt;/font&gt;&lt;/div&gt;" style="rhombus;whiteSpace=wrap;html=1;rounded=1;fontSize=12;" vertex="1" parent="1">
          <mxGeometry x="600" y="600" width="120" height="120" as="geometry" />
        </mxCell>
        <mxCell id="YK6meVrRw3B7LHDAnTog-30" style="edgeStyle=orthogonalEdgeStyle;rounded=0;orthogonalLoop=1;jettySize=auto;html=1;" edge="1" parent="1" source="YK6meVrRw3B7LHDAnTog-24" target="20DuT2QTR_UrF6RUShH2-1">
          <mxGeometry relative="1" as="geometry" />
        </mxCell>
        <mxCell id="YK6meVrRw3B7LHDAnTog-24" value="Tombol &quot;Questionnaire&quot; Di Aktifkan" style="whiteSpace=wrap;html=1;rounded=1;" vertex="1" parent="1">
          <mxGeometry x="400" y="800" width="120" height="60" as="geometry" />
        </mxCell>
        <mxCell id="YK6meVrRw3B7LHDAnTog-35" value="" style="edgeStyle=orthogonalEdgeStyle;rounded=0;orthogonalLoop=1;jettySize=auto;html=1;" edge="1" parent="1" source="YK6meVrRw3B7LHDAnTog-32" target="YK6meVrRw3B7LHDAnTog-34">
          <mxGeometry relative="1" as="geometry" />
        </mxCell>
        <mxCell id="YK6meVrRw3B7LHDAnTog-32" value="Mengisi Formulir &quot;&lt;span style=&quot;color: rgba(0, 0, 0, 0); font-family: monospace; font-size: 0px; text-align: start; text-wrap-mode: nowrap;&quot;&gt;&lt;span style=&quot;color: rgb(0, 0, 0); font-family: Helvetica; font-size: 12px; text-align: center; text-wrap-mode: wrap;&quot;&gt;Questionnaire&quot;&lt;/span&gt;%3CmxGraphModel%3E%3Croot%3E%3CmxCell%20id%3D%220%22%2F%3E%3CmxCell%20id%3D%221%22%20parent%3D%220%22%2F%3E%3CmxCell%20id%3D%222%22%20value%3D%22Klik%20Tombol%20%26quot%3BQuestionnaire%26quot%3B%22%20style%3D%22rounded%3D1%3BwhiteSpace%3Dwrap%3Bhtml%3D1%3BstrokeWidth%3D2%3BfontSize%3D12%3B%22%20vertex%3D%221%22%20parent%3D%221%22%3E%3CmxGeometry%20x%3D%22120%22%20y%3D%22800%22%20width%3D%22120%22%20height%3D%2260%22%20as%3D%22geometry%22%2F%3E%3C%2FmxCell%3E%3C%2Froot%3E%3C%2FmxGraphModel%3E&lt;/span&gt;" style="rounded=1;whiteSpace=wrap;html=1;strokeWidth=2;fontSize=12;" vertex="1" parent="1">
          <mxGeometry x="120" y="1040" width="120" height="60" as="geometry" />
        </mxCell>
        <mxCell id="YK6meVrRw3B7LHDAnTog-37" style="edgeStyle=orthogonalEdgeStyle;rounded=0;orthogonalLoop=1;jettySize=auto;html=1;" edge="1" parent="1" source="YK6meVrRw3B7LHDAnTog-34" target="YK6meVrRw3B7LHDAnTog-36">
          <mxGeometry relative="1" as="geometry" />
        </mxCell>
        <mxCell id="YK6meVrRw3B7LHDAnTog-34" value="Klik Tombol &quot;Submit&quot;" style="rounded=1;whiteSpace=wrap;html=1;strokeWidth=2;fontSize=12;" vertex="1" parent="1">
          <mxGeometry x="120" y="1160" width="120" height="60" as="geometry" />
        </mxCell>
        <mxCell id="YK6meVrRw3B7LHDAnTog-40" value="" style="edgeStyle=orthogonalEdgeStyle;rounded=0;orthogonalLoop=1;jettySize=auto;html=1;" edge="1" parent="1" source="YK6meVrRw3B7LHDAnTog-36" target="YK6meVrRw3B7LHDAnTog-39">
          <mxGeometry relative="1" as="geometry" />
        </mxCell>
        <mxCell id="YK6meVrRw3B7LHDAnTog-36" value="Menyimpan Data Di Database" style="rounded=1;whiteSpace=wrap;html=1;strokeWidth=2;fontSize=12;" vertex="1" parent="1">
          <mxGeometry x="400" y="1160" width="120" height="60" as="geometry" />
        </mxCell>
        <mxCell id="YK6meVrRw3B7LHDAnTog-41" style="edgeStyle=orthogonalEdgeStyle;rounded=0;orthogonalLoop=1;jettySize=auto;html=1;entryX=1;entryY=0.5;entryDx=0;entryDy=0;" edge="1" parent="1" source="YK6meVrRw3B7LHDAnTog-39" target="7nAhwSSTOHI013ocTRrG-177">
          <mxGeometry relative="1" as="geometry">
            <Array as="points">
              <mxPoint x="460" y="1360" />
            </Array>
          </mxGeometry>
        </mxCell>
        <mxCell id="YK6meVrRw3B7LHDAnTog-39" value="Dialihkan Ke Halaman &quot;Home&quot;" style="rounded=1;whiteSpace=wrap;html=1;strokeWidth=2;fontSize=12;" vertex="1" parent="1">
          <mxGeometry x="400" y="1280" width="120" height="60" as="geometry" />
        </mxCell>
      </root>
    </mxGraphModel>
  </diagram>
</mxfile>
